PathFileType	4	(X/Y/Z)	Patient4_TMGait_0pt4_01_left_27.trc.trc
DataRate	CameraRate	NumFrames	NumMarkers	Units	OrigDataRate	OrigDataStartFrame	OrigNumFrames
77.777777777778	77.777777777778	6	33	mm	77.777777777778	53	       141
Frame#	Time	Sacral			L.Shoulder			Chest			R.Shoulder			Neck			R.ASIS			L.ASIS			R.Thigh.Superior			R.Thigh.Lateral			R.Thigh.Inferior			R.Patella			L.Thigh.Superior			L.Thigh.Lateral			L.Thigh.Inferior			L.Patella			L.Shank.Superior			L.Shank.Lateral			L.Shank.Inferior			R.Shank.Superior			R.Shank.Lateral			R.Shank.Inferior			R.Heel			R.Midfoot.Superior			R.Midfoot.Lateral			R.Toe			L.Heel			L.Midfoot.Lateral			L.Midfoot.Superior			L.Toe			L.Elbow			L.Wrist			R.Elbow			R.Wrist			
		X1	Y1	Z1	X2	Y2	Z2	X3	Y3	Z3	X4	Y4	Z4	X5	Y5	Z5	X6	Y6	Z6	X7	Y7	Z7	X8	Y8	Z8	X9	Y9	Z9	X10	Y10	Z10	X11	Y11	Z11	X12	Y12	Z12	X13	Y13	Z13	X14	Y14	Z14	X15	Y15	Z15	X16	Y16	Z16	X17	Y17	Z17	X18	Y18	Z18	X19	Y19	Z19	X20	Y20	Z20	X21	Y21	Z21	X22	Y22	Z22	X23	Y23	Z23	X24	Y24	Z24	X25	Y25	Z25	X26	Y26	Z26	X27	Y27	Z27	X28	Y28	Z28	X29	Y29	Z29	X30	Y30	Z30	X31	Y31	Z31	X32	Y32	Z32	X33	Y33	Z33	

53	33.478571428571	865.486033249023	1005.293489085236	435.772856472413	1036.801415541193	1430.987991316081	231.271547385346	1140.303885941761	1371.778024103267	394.933152335665	1055.549725371621	1451.452188450555	565.578050201624	1026.336176843686	1499.367052681703	384.943819182857	1099.263154464468	952.257123555468	547.484080383094	1077.601081512110	967.930712887780	273.466167323370	1182.350971142714	779.511661079663	520.970995182715	1144.448821048913	658.832937773160	600.414681275457	1232.619619236245	618.201415992324	521.234346004579	1254.387103152129	509.752063685669	546.569512597987	1124.858951641394	754.624927218646	299.082846913695	1030.807429528435	640.071789127804	243.091742305082	1116.739740596969	561.924521419440	301.309858833547	1115.666026261843	494.382213417198	311.380027770481	1092.398161710061	421.645439049754	305.048663632080	1003.158789917169	303.357832070202	261.665671920690	1064.626620985499	195.742431552120	331.640711518277	1186.785517842807	429.852717400068	556.923026349572	1074.328219377323	377.461588952261	624.502217015998	1070.858178374545	266.495467063825	577.500017741754	878.313990316125	175.665029183123	560.492742706623	1055.955548636413	147.912756216124	595.481638699268	949.400418383646	129.296784792814	633.169535736118	1139.203834274470	48.462859040219	621.069323908397	945.231307700009	38.304334341768	385.240850882105	1014.232042792873	34.562203783006	299.835146951882	1097.580244278204	97.888159720069	320.957759731810	1224.986618401554	49.271262515142	286.990870647528	1066.584596385388	1082.360214190005	108.468253503050	1212.747900561363	865.273972874345	104.329579196427	1002.870142686091	1111.207738042808	696.841324601144	1082.401081631005	861.720798237124	703.122839242921	
54	33.491428571429	864.890656562986	1005.799599480563	434.194400834806	1038.557442711887	1431.403920861755	230.510273406983	1140.347878515460	1372.131176202059	395.183327708686	1054.023629295379	1451.840898185725	564.974698745632	1026.578459674309	1499.760296425044	384.179071208934	1097.961552414902	952.998965520188	547.414932254045	1077.860825143556	968.137346434600	273.318577018124	1182.120436727216	781.497976578815	520.786044426274	1145.808435968015	660.864683835123	600.911468590346	1233.487913841543	620.630328442679	521.031006297833	1257.243546860731	513.573566681329	546.825606400921	1123.116998055952	754.063069344552	299.910445225601	1028.304666777374	640.271045557362	242.853931235166	1112.875792333098	561.383197335653	301.794156420102	1111.049316340655	494.061985241816	311.867829661397	1087.806783804487	421.524696726861	305.276680181491	998.553926679407	303.369959306573	261.587911911236	1059.622517481822	195.668529911777	331.743019852590	1192.506120236832	432.006284006559	557.853599671807	1082.649633102895	375.066743075829	625.899187894302	1083.889332994135	263.866764534953	579.228099077965	895.487221589951	165.104220755183	562.723586235313	1074.209359944976	144.563795774414	598.081367419857	968.354329741826	121.707748226205	635.510371980943	1161.064230560705	48.368020044880	623.599969284586	940.020629581240	38.292561622869	385.224633627283	1009.054502212855	34.550183352600	299.823169804639	1092.415010283870	97.858821681625	320.988239790083	1219.832179173962	49.268486986339	287.018841066929	1073.223982764459	1083.928395270176	106.472517641696	1226.103895709098	871.357692833177	103.490095859490	992.773604641457	1113.532117458042	696.495080546030	1059.565334757298	860.484216391547	709.194636886476	
55	33.504285714286	864.332610800151	1006.199565600701	432.717856250889	1040.400369896498	1431.667502467670	229.898686288465	1140.472774886918	1372.336615158119	395.566123259211	1052.619547494692	1452.137885061504	564.487883981843	1026.914679530674	1500.031206096085	383.541463153098	1096.651762921649	953.521184397512	547.493425551947	1078.209359939859	968.270031838743	273.309091767920	1181.549272817871	782.983864138767	520.812720902019	1146.524587094468	662.481841836497	601.576969220324	1233.624606261527	622.463086604712	521.017326086183	1259.210591191797	517.020056613211	547.236687701616	1121.413346647184	753.485292500927	300.808590738675	1025.900725048290	640.444305518692	242.598788530986	1109.087469341834	560.833066028335	302.241931253680	1106.507655709099	493.727324209724	312.277717457844	1083.265458186457	421.386670303376	305.454171687728	993.978410920458	303.373655679799	261.456786502880	1054.636476148387	195.584853375578	331.809570764507	1197.660713681655	433.841537413399	558.957697737741	1090.789613744499	372.131785141195	627.460569187801	1097.166457466201	260.914535028330	581.114599733740	913.605443857272	153.814461104292	565.012893151797	1093.150416201811	140.965674295685	600.772674226044	988.211125068653	113.685666211265	637.977332484060	1183.775420943636	48.455528917965	626.434437626830	934.823942209476	38.285921926624	385.209934448251	1003.884825104194	34.533309044285	299.810987541495	1087.269132437617	97.812548922433	321.022279067825	1214.690002061240	49.226493738058	287.057124117836	1079.419830183638	1085.386124426336	104.638505221341	1239.068422784666	877.671143506565	102.894444733617	982.990316108909	1116.025386245530	696.271635434471	1037.631002006889	860.461855810141	714.862806671448	
56	33.517142857143	863.817137169616	1006.487894786439	431.356235172679	1042.306351945737	1431.760529414293	229.442048002823	1140.676941293206	1372.388394239740	396.079796935481	1051.351747925459	1452.345895578293	564.123475002359	1027.350340014530	1500.173323013834	383.027125643782	1095.353222566540	953.822035068529	547.719960442442	1078.656649762659	968.352303159836	273.422428101776	1180.623479040970	783.947213027489	521.049441094726	1146.545986816967	663.654603227802	602.399511109381	1233.039438276667	623.685587227752	521.235661694945	1260.286536294866	520.056321695979	547.818735172104	1119.759737683602	752.889522157456	301.719231327804	1023.569618663404	640.595645429910	242.326402628498	1105.362890394042	560.271762046728	302.629063142313	1102.034057721987	493.378883899411	312.595400777890	1078.765577020727	421.236015737460	305.572776648639	989.420676254828	303.372050178958	261.272806424744	1049.666604625863	195.494788036908	331.837319435056	1202.229354611292	435.381958105547	560.219326007243	1098.735149931272	368.777130810139	629.162910728694	1110.597485024704	257.818728643545	583.116661787951	932.599423360919	142.154661309261	567.291188898196	1112.623644353773	137.343078739423	603.474417086534	1008.841829446228	105.541634463587	640.492213053171	1207.082104369913	48.918738577837	629.474261102877	929.642064853223	38.284670177730	385.193678502836	998.722512362856	34.511439749217	299.797615847568	1082.139302060825	97.751858686021	321.056234742657	1209.557671990039	49.147276035038	287.101673167686	1085.197311306142	1086.698547633067	102.964577582404	1251.610438680813	884.173041754163	102.524266330202	973.529285912139	1118.670495396967	696.166849639087	1016.735416908404	861.480439163428	720.087075511400	
57	33.530000000000	863.353597200560	1006.666613448829	430.122486001071	1044.251781910156	1431.677997207688	229.146314905453	1140.959315603777	1372.289949045569	396.722204455431	1050.235935234028	1452.472694711743	563.888707789783	1027.889014372522	1500.187696372493	382.635795772515	1094.085413040067	953.909121201394	548.094332603437	1079.207777260725	968.405255547989	273.647064430056	1179.336096095604	784.381656574821	521.495401007150	1145.833320516857	664.368733535036	603.367977351899	1231.756591597026	624.302704652254	521.725916905816	1260.486544474086	522.657518249830	548.581808055353	1118.164768110428	752.270325045088	302.592624343729	1021.278492179712	640.730809112989	242.046891744224	1101.679127810257	559.697898131840	302.946917440730	1097.610230314819	493.018676345406	312.822508169072	1074.289782077292	421.079909862602	305.636309570834	984.865715920178	303.369264947973	261.043749493680	1044.707267530063	195.402743892699	331.830290764635	1206.195238098409	436.661968694388	561.613707191555	1106.474300489089	365.124548891149	630.982789191137	1124.077254373341	254.751178449365	585.182287003110	952.359499384769	130.467999950092	569.504414455809	1132.461511794490	133.915273987683	606.103745496116	1030.098372667243	97.563025200666	642.975790182423	1230.725495736479	49.933130354438	632.577671159297	924.474094794936	38.287875101475	385.173451979458	993.565822423692	34.484862996324	299.782771842934	1077.019902919224	97.680384262937	321.087484005243	1204.431442691555	49.036607148145	287.148378139932	1090.586071427891	1087.844483927222	101.458398746044	1263.694995642226	890.824162533933	102.368407113981	964.410055508455	1121.453936717845	696.177046385815	996.996643906984	863.358318742084	724.833051584049	
58	33.542857142857	862.954122323521	1006.743318179032	429.028326485750	1046.215876199663	1431.426991117541	229.017453048598	1141.319545525774	1372.052201569875	397.491125351880	1049.287384119345	1452.528486652355	563.791770973632	1028.532099253127	1500.081617771762	382.371028815609	1092.866715964243	953.797427377012	548.615634867721	1079.859455680674	968.441736608929	273.977884521022	1177.693021584769	784.297148520904	522.151143520950	1144.371902402922	664.626414220751	604.473976679823	1229.820575854667	624.337055366545	522.520342481762	1259.845897591604	524.807974623045	549.527402212378	1116.633881136183	751.620055485334	303.393564934124	1018.992965141379	640.856059656996	241.778391862559	1098.007175492507	559.111296915978	303.201961394319	1093.211639564817	492.649629069573	312.974208450689	1069.815739243209	420.926690927842	305.658849133741	980.297712619976	303.369928164593	260.782816139439	1039.750323740847	195.313573227818	331.798213187328	1209.545984581297	437.721552286061	563.108047273300	1113.991675848507	361.292354654711	632.894491376777	1137.483107774297	251.865337661506	587.251580036590	972.723134537204	119.067344160499	571.615086479361	1152.474297043252	130.881595420540	608.575894744641	1051.803062144814	89.999848883420	645.350351488791	1254.438726926741	51.642298145821	635.568085685052	919.317285988030	38.293702635087	385.147919401172	988.412018992316	34.454332634427	299.766599859818	1071.904128068415	97.602371698709	321.114517338823	1199.306842327773	48.903472554365	287.193518305458	1095.615434112275	1088.814707534873	100.135362371941	1275.283517124844	897.585566462744	102.422163704176	955.663476248318	1124.359619349564	696.297723200888	978.516216350592	865.911839729606	729.074329768761	
